<?xml version="1.0" encoding="utf-8"?>
<!-- Generator: Adobe Illustrator 28.0.0, SVG Export Plug-In . SVG Version: 6.00 Build 0)  -->
<svg version="1.1" id="Layer_1" xmlns="http://www.w3.org/2000/svg" xmlns:xlink="http://www.w3.org/1999/xlink" x="0px" y="0px"
	 viewBox="0 0 552.2 94" style="enable-background:new 0 0 552.2 94;" xml:space="preserve">
<style type="text/css">
	.st0{fill:none;}
</style>
<polygon class="st0" points="-1.7,94 552.1,94 553.3,-2.6 -1.7,0 "/>
<g>
	<path d="M504.5,92.3h17.3l30.4-66.1h-15.8l-22.8,52.2h-0.2l-22.3-52.2h-16.2L504.5,92.3z M462.6,37.1h0.4l13.3,28.7h-27.1
		L462.6,37.1z M420.5,92.3h16l8.3-17.6h35.5l8.3,17.6h16.7l-34.2-66.1h-16.6L420.5,92.3z M404.9,50.3c-0.8-3.2-2.2-6.1-4.1-8.8
		c-1.9-2.6-4.4-4.7-7.2-6.3c-3.2-1.7-6.9-2.5-10.5-2.4c-4-0.1-8,0.7-11.6,2.4c-3,1.5-5.6,3.6-7.7,6.3c-2,2.6-3.4,5.6-4.2,8.8
		c-1.7,6.5-1.7,13.3,0,19.8c0.8,3.2,2.3,6.2,4.2,8.8c2.1,2.6,4.7,4.8,7.7,6.3c3.6,1.7,7.6,2.6,11.6,2.4c3.7,0.1,7.3-0.7,10.5-2.4
		c2.8-1.5,5.3-3.7,7.2-6.3c1.9-2.6,3.3-5.6,4.1-8.8C406.7,63.6,406.7,56.8,404.9,50.3 M358.3,3.4v36.9h0.3c0.9-2.3,2.2-4.3,3.9-6.1
		c1.7-1.8,3.7-3.2,5.8-4.4c2.2-1.2,4.6-2.1,7.1-2.7c2.5-0.6,5.1-0.9,7.7-0.9c4.8-0.1,9.6,0.8,14,2.7c3.8,1.7,7.2,4.2,9.9,7.4
		c2.7,3.2,4.7,6.9,5.9,10.8c2.6,8.5,2.6,17.5,0,26c-1.2,4-3.2,7.7-5.9,10.8c-2.7,3.2-6.1,5.7-9.9,7.3c-4.4,1.9-9.2,2.8-14,2.7
		c-5.4,0.1-10.7-1.1-15.4-3.6c-4.3-2.2-7.8-5.9-9.8-10.3h-0.3v12.2h-7.9V0L358.3,3.4z M346.9,92.3h-11.8V28.1h11.8L346.9,92.3z
		 M346.9,12.6h-11.8V0h11.8L346.9,12.6z M276.8,70.1c0.8,3.2,2.2,6.1,4.1,8.8c1.9,2.6,4.4,4.7,7.2,6.3c3.2,1.7,6.9,2.5,10.5,2.4
		c4,0.1,8-0.7,11.6-2.4c3-1.5,5.6-3.6,7.7-6.3c2-2.6,3.4-5.6,4.2-8.8c1.7-6.5,1.7-13.3,0-19.8c-0.8-3.2-2.3-6.2-4.2-8.8
		c-2-2.6-4.7-4.8-7.7-6.3c-3.6-1.7-7.6-2.6-11.6-2.4c-3.7-0.1-7.3,0.7-10.5,2.4c-2.8,1.5-5.3,3.7-7.2,6.3c-1.9,2.6-3.3,5.6-4.1,8.8
		C275,56.8,275,63.6,276.8,70.1 M324.1,92.3V80.1h-0.3c-1,2.1-2.3,4.1-4,5.7c-1.8,1.8-3.9,3.3-6.1,4.4c-2.3,1.2-4.8,2.2-7.3,2.8
		c-2.5,0.7-5.1,1-7.7,1c-4.8,0.1-9.6-0.8-14-2.7c-3.8-1.7-7.2-4.2-9.9-7.3c-2.7-3.2-4.7-6.8-5.9-10.8c-2.6-8.5-2.6-17.5,0-26
		c1.2-4,3.2-7.7,5.9-10.8c2.7-3.2,6.1-5.7,9.9-7.4c4.4-1.9,9.2-2.8,14-2.7c2.6,0,5.2,0.3,7.7,0.9c2.4,0.6,4.8,1.5,7,2.7
		c2.2,1.2,4.1,2.7,5.8,4.4c1.7,1.8,3,3.8,3.9,6.1h0.3V3.4L332,0v92.3H324.1z M222.9,28.1v11.1h0.2c1.5-3.9,4.4-7.2,8-9.4
		c3.8-2.4,8.1-3.6,12.6-3.5c3.8-0.1,7.6,0.5,11.3,1.7c2.8,1,5.3,2.7,7.2,4.9c1.9,2.2,3.2,4.9,3.9,7.8c0.8,3.4,1.2,6.8,1.1,10.3v41.3
		h-7.8V52.2c0-2.6-0.2-5.1-0.8-7.7c-0.4-2.2-1.3-4.3-2.6-6.2c-1.3-1.8-3-3.2-5-4.1c-2.5-1.1-5.2-1.6-7.9-1.5
		c-2.9-0.1-5.8,0.5-8.4,1.7c-2.4,1.1-4.5,2.6-6.2,4.6c-1.8,2.1-3.1,4.4-4,7c-1,2.8-1.5,5.8-1.6,8.8v37.4h-7.8V28.1H222.9z
		 M167.6,71.1c0.7,2.9,2,5.7,3.8,8.2c1.8,2.4,4,4.5,6.6,6c2.9,1.6,6.2,2.5,9.6,2.4c5.7,0,10.2-1.5,13.4-4.5
		c3.4-3.2,5.7-7.4,6.7-11.9h7.8c-1.7,7.3-4.7,12.9-9.1,16.9c-4.4,4-10.7,6-18.9,6c-4.5,0.1-9-0.8-13.1-2.7c-3.6-1.7-6.6-4.2-9-7.3
		c-2.4-3.3-4.2-7-5.2-10.9c-1.1-4.2-1.7-8.6-1.7-13c0-4.2,0.6-8.4,1.7-12.4c1-3.9,2.8-7.6,5.2-10.9c2.4-3.2,5.4-5.9,9-7.7
		c4.1-2,8.6-3,13.1-2.9c8.8-0.3,17.2,3.9,22.1,11.3c2.3,3.5,4,7.4,4.9,11.6c1,4.3,1.4,8.8,1.2,13.2h-49.3
		C166.5,65.3,166.9,68.2,167.6,71.1 M206.4,47.1c-0.9-2.6-2.2-5.1-4-7.3c-1.7-2.1-3.9-3.9-6.4-5.1c-2.6-1.3-5.5-2-8.5-1.9
		c-3-0.1-5.9,0.6-8.6,1.9c-2.4,1.2-4.6,3-6.4,5.1c-1.8,2.2-3.2,4.7-4.2,7.3c-1,2.7-1.7,5.6-2.1,8.5H208
		C208,52.7,207.4,49.8,206.4,47.1 M134.5,24.6v18.5h0.4c3-5.2,7.6-9.2,13.9-12.1s13.8-4.1,22.5-3.9v7.8c-4.9-0.2-9.8,0.3-14.6,1.4
		c-4,1-7.8,2.6-11.3,4.8c-3,1.9-5.5,4.4-7.4,7.4c-1.7,2.8-2.6,6.1-2.6,9.4v34.2h-11.8V28.1L134.5,24.6z M76,71.1
		c0.7,2.9,2,5.7,3.8,8.2c1.8,2.4,4,4.5,6.6,6c2.9,1.6,6.2,2.5,9.6,2.4c5.7,0,10.2-1.5,13.4-4.5c3.4-3.2,5.7-7.4,6.7-11.9h7.8
		c-1.7,7.3-4.7,12.9-9.1,16.9c-4.4,4-10.7,6-18.8,6c-4.5,0.1-9-0.8-13.1-2.7c-3.6-1.7-6.6-4.2-9-7.3c-2.4-3.2-4.1-6.9-5.2-10.8
		c-1.1-4.2-1.7-8.6-1.7-13c0-4.2,0.6-8.4,1.7-12.4c1-3.9,2.8-7.6,5.2-10.9c2.4-3.2,5.4-5.9,9-7.7c4.1-2.1,8.6-3.1,13.1-3
		c8.8-0.3,17.2,3.9,22.1,11.3c2.3,3.5,4,7.4,4.9,11.6c1,4.3,1.4,8.8,1.2,13.2H74.8C74.8,65.3,75.2,68.2,76,71.1 M114.8,47.1
		c-0.9-2.6-2.2-5.1-4-7.3c-1.7-2.1-3.9-3.9-6.3-5.1c-2.6-1.3-5.6-1.9-8.5-1.9c-3-0.1-5.9,0.6-8.6,1.9c-2.4,1.2-4.6,3-6.3,5.1
		c-1.8,2.2-3.2,4.7-4.2,7.3c-1,2.7-1.7,5.6-2.1,8.5h41.6C116.3,52.8,115.8,49.9,114.8,47.1 M10.6,74.5c1.4,2.9,3.5,5.5,6.2,7.3
		c2.8,1.9,6,3.2,9.3,3.9c3.8,0.8,7.6,1.2,11.4,1.2c2.6,0,5.1-0.4,7.6-1c2.7-0.6,5.3-1.7,7.7-3.2c2.3-1.4,4.4-3.3,5.9-5.6
		c1.6-2.4,2.4-5.3,2.4-8.3c0.1-2.3-0.5-4.5-1.7-6.5c-1.1-1.8-2.6-3.4-4.3-4.6c-1.8-1.3-3.8-2.3-5.9-3c-2.1-0.8-4.2-1.4-6.3-1.9
		L22.9,48c-2.6-0.7-5.1-1.5-7.5-2.5c-2.4-0.9-4.5-2.3-6.4-4c-1.9-1.7-3.4-3.8-4.4-6.1c-1.2-2.8-1.8-5.8-1.7-8.8
		C3,24,3.4,21.5,4.2,19c0.9-3.1,2.5-5.9,4.7-8.2c2.6-2.8,5.8-5,9.4-6.5c4-1.8,9.1-2.7,15.3-2.7c4.3,0,8.5,0.6,12.6,1.8
		c3.8,1.1,7.3,2.8,10.5,5.2c3,2.3,5.4,5.3,7.2,8.6c1.8,3.7,2.8,7.8,2.7,12h-8.5c-0.1-3.1-0.9-6.1-2.3-8.9c-1.3-2.5-3.1-4.6-5.3-6.3
		c-2.3-1.7-4.8-3-7.6-3.9c-2.9-0.9-6-1.3-9-1.3c-2.8,0-5.6,0.3-8.4,0.9c-2.5,0.6-4.9,1.6-7.1,3c-2,1.4-3.7,3.2-4.9,5.4
		c-1.3,2.6-2,5.4-1.9,8.3c0,1.9,0.3,3.7,1.1,5.4c0.7,1.5,1.7,2.8,2.9,3.9c1.3,1.1,2.7,2,4.3,2.6c1.7,0.7,3.4,1.2,5.2,1.6l21.6,5.4
		c3,0.8,6,1.8,8.9,3c2.7,1.1,5.1,2.6,7.3,4.5c2.1,1.8,3.8,4,5,6.5c1.3,2.9,1.9,6.1,1.8,9.3c0,1.3-0.1,2.7-0.3,4
		c-0.3,1.8-0.8,3.6-1.5,5.3c-0.9,2-2,3.9-3.4,5.7c-1.7,2.1-3.7,3.8-6,5.2c-2.9,1.7-6.1,3-9.4,3.7c-4.4,1-8.9,1.5-13.4,1.4
		c-4.9,0-9.8-0.6-14.6-1.8c-4.2-1-8.1-2.9-11.5-5.5c-3.1-2.5-5.6-5.8-7.2-9.6C0.5,72.7-0.3,67.8,0,63h8.5C8.3,67,9,70.9,10.6,74.5"
		/>
</g>
</svg>
